<svg  version="1.1" viewBox="0 0 132.29 132.29" xmlns="http://www.w3.org/2000/svg" xmlns:xlink="http://www.w3.org/1999/xlink">
 <defs>
  <radialGradient id="radialGradient1064" cx="66.146" cy="66.146" r="66.146" gradientTransform="matrix(.9694 0 0 .9694 2.0241 2.0241)" gradientUnits="userSpaceOnUse">
   <stop stop-color="#fff" offset="0"/>
   <stop stop-color="#fff" offset=".23"/>
   <stop offset=".24"/>
   <stop stop-color="#fc0000" offset=".25"/>
   <stop stop-color="#daf200" offset=".52323"/>
   <stop stop-color="#00e342" offset=".5802"/>
   <stop stop-color="#2a93aa" offset=".68252"/>
   <stop stop-color="#1100a0" offset=".98894"/>
  </radialGradient>
 </defs>
 <g>
  <g>
   <circle cx="66.146" cy="66.146" r="64.122" fill="url(#radialGradient1064)" stroke="#000" stroke-width=".52917"/>
   <rect y="58.208" width="132.29" height="15.875" fill="#fff" stroke="#000" stroke-linecap="round" stroke-width=".52917" style="paint-order:fill markers stroke"/>
   <text x="2.3359783" y="69.936287" fill="#000000" font-family="Arial" font-size="10.583px" stroke="#000000" stroke-linecap="round" stroke-width=".13229" style="font-variant-caps:normal;font-variant-east-asian:normal;font-variant-ligatures:normal;font-variant-numeric:normal;paint-order:fill markers stroke" xml:space="preserve"><tspan x="2.3359783" y="69.936287">SIEBERT-ISOLIERUNGEN</tspan></text>
  </g>
  <g transform="translate(.18251 1.6294)" stroke="#000" stroke-linecap="round" stroke-width=".13229" style="paint-order:fill markers stroke" aria-label="WKSB">
   <path class="UnoptimicedTransforms" d="m72.546 7.2755c-0.64941-0.10929-1.2256-0.08951-1.7164 0.051931-0.4871 0.14201-0.87621 0.39912-1.1646 0.76476-0.28433 0.36231-0.44556 0.76985-0.49294 1.2198-0.0736 0.6989 0.11272 1.3156 0.53268 1.8594 0.29947 0.38755 0.84607 0.75082 1.6327 1.1209 0.60358 0.28457 0.99966 0.49791 1.1573 0.59895 0.24 0.15688 0.39548 0.32042 0.46772 0.48765 0.07653 0.16416 0.09291 0.34929 0.05068 0.55544-0.0658 0.3212-0.24583 0.57685-0.53433 0.77094-0.28488 0.19108-0.6584 0.24138-1.1265 0.15954-0.44176-0.07722-0.7713-0.26747-0.99569-0.5787-0.22048-0.30989-0.33776-0.7611-0.34807-1.353-0.4984-0.01035-0.99536-0.01171-1.4906-0.0035 0.0013 0.99668 0.22041 1.7823 0.63415 2.355 0.4166 0.57195 1.0498 0.91724 1.9277 1.0713 0.60441 0.10606 1.1283 0.10257 1.5816-0.02122 0.45318-0.12751 0.84385-0.37921 1.1714-0.76076 0.32751-0.38145 0.55418-0.81848 0.67117-1.3154 0.1291-0.5483 0.13804-1.0306 0.02001-1.4488-0.11354-0.42083-0.32952-0.77891-0.64909-1.0702-0.31345-0.29286-0.8374-0.62272-1.5724-0.96186-0.73874-0.34088-1.2004-0.6048-1.3787-0.82434-0.13877-0.17117-0.1949-0.36039-0.16561-0.56842 0.0321-0.22801 0.14483-0.39805 0.3401-0.50844 0.30321-0.17211 0.69944-0.22079 1.1811-0.13955 0.46667 0.078706 0.79635 0.24315 0.98684 0.48486 0.1954 0.23901 0.28122 0.58977 0.26004 1.0518 0.53975 0.08066 1.0782 0.16957 1.6151 0.26604 0.1592-0.80278 0.040503-1.5028-0.37836-2.0931-0.41417-0.58811-1.156-0.99245-2.217-1.171zm-23.997 3.6392c2.0886 2.2355 3.9977 4.5913 5.7289 7.0486 0.42995-0.20408 0.86779-0.39425 1.3125-0.57067-0.41281-2.2176-0.70465-4.4696-0.87774-6.7464 1.231 1.9229 2.3518 3.8996 3.363 5.9203 0.45625-0.1242 0.91734-0.23552 1.3823-0.33409-0.09514-3.0114-0.0016-6.0486 0.27624-9.0924-0.60058 0.090818-1.1993 0.19748-1.7954 0.32013-0.03627 2.1227 0.0099 4.2367 0.13972 6.3369-0.91217-1.9083-1.9146-3.7826-3.008-5.6159-0.6915 0.20629-1.3775 0.43515-2.0566 0.68678 0.18867 2.0991 0.47855 4.1751 0.87138 6.2204-1.1419-1.723-2.3613-3.4045-3.6585-5.0393-0.566 0.27142-1.1256 0.55993-1.6778 0.86565zm12.124-3.9036 1.0822 8.8407c0.4479-0.05419 0.89789-0.09727 1.3492-0.12936l-0.19135-2.6853c0.36713-0.52368 0.75517-1.0407 1.1635-1.5497 0.64925 1.1811 1.2288 2.3818 1.7387 3.5944 0.08363 0.19469 0.16574 0.38965 0.24635 0.58486 0.60009 0.01741 1.2019 0.05292 1.8051 0.10503-0.57147-1.4174-1.2192-2.8211-1.9546-4.2072-0.23957-0.45233-0.48989-0.90216-0.75096-1.349 0.26378-0.2988 0.53468-0.59431 0.81253-0.88622 0.78748-0.83252 1.6219-1.6394 2.4966-2.4216-0.78178-0.067137-1.5689-0.11531-2.3612-0.14286-0.02224 0.023083-0.04444 0.046184-0.06661 0.069304-1.2226 1.2577-2.3225 2.581-3.29 3.9481l-0.2812-3.9461c-0.60025 0.042842-1.1999 0.10114-1.7981 0.175zm16.674 1.445-2.2392 8.6278c0.79746 0.2091 1.5961 0.43636 2.3957 0.67849 0.92369 0.27111 1.4739 0.43392 1.7361 0.48354 0.39532 0.07381 0.75799 0.04796 1.0898-0.07917 0.33623-0.12981 0.64262-0.34773 0.9185-0.65483 0.28052-0.30983 0.48958-0.65457 0.62469-1.0362 0.17156-0.48466 0.20213-0.94838 0.08707-1.3917-0.11503-0.44322-0.37383-0.81844-0.7776-1.1211 0.37743-0.05697 0.71617-0.21679 1.0172-0.48108 0.30438-0.26304 0.52679-0.59046 0.66443-0.98422 0.12695-0.36318 0.16392-0.71739 0.10828-1.0631-0.0543-0.34949-0.17097-0.654-0.35053-0.91258-0.17603-0.25735-0.40852-0.46448-0.69703-0.6198-0.28219-0.15715-0.7385-0.33926-1.3647-0.53336-1.057-0.32766-2.1281-0.63365-3.2128-0.91264zm1.2251 1.8701c0.30424 0.08675 0.60753 0.17551 0.90986 0.26616 0.73618 0.22074 1.1921 0.37997 1.334 0.44582 0.24948 0.11832 0.41158 0.28247 0.4865 0.49064 0.07972 0.2056 0.07557 0.4392-0.01094 0.70102-0.09031 0.27332-0.23955 0.4695-0.44626 0.5894-0.20214 0.11726-0.43869 0.15105-0.71098 0.10253-0.1558-0.027647-0.51773-0.13406-1.1207-0.31615-0.3353-0.10124-0.67147-0.2001-1.0085-0.29638zm-0.97514 3.4104c0.40619 0.11621 0.8115 0.23628 1.2159 0.35985 0.68219 0.20845 1.1131 0.39464 1.287 0.53999 0.17873 0.14767 0.29202 0.32815 0.34011 0.54055 0.04812 0.21249 0.02919 0.44543-0.05563 0.69924-0.10021 0.29987-0.25002 0.51713-0.44775 0.6525-0.19328 0.13268-0.405 0.18706-0.63589 0.16374-0.15383-0.01076-0.48751-0.10014-1.0131-0.26206-0.44848-0.13817-0.89728-0.27193-1.3464-0.40074z"/>
  </g>
 </g>
 <g stroke="#000" stroke-linecap="round" stroke-width=".13229">
  <g fill="#fff" style="paint-order:fill markers stroke" aria-label="WKSB">
   <path class="UnoptimicedTransforms" d="m72.546 7.2755c-0.64941-0.10929-1.2256-0.08951-1.7164 0.051931-0.4871 0.14201-0.87621 0.39912-1.1646 0.76476-0.28433 0.36231-0.44556 0.76985-0.49294 1.2198-0.0736 0.6989 0.11272 1.3156 0.53268 1.8594 0.29947 0.38755 0.84607 0.75082 1.6327 1.1209 0.60358 0.28457 0.99966 0.49791 1.1573 0.59895 0.24 0.15688 0.39548 0.32042 0.46772 0.48765 0.07653 0.16416 0.09291 0.34929 0.05068 0.55544-0.0658 0.3212-0.24583 0.57685-0.53433 0.77094-0.28488 0.19108-0.6584 0.24138-1.1265 0.15954-0.44176-0.07722-0.7713-0.26747-0.99569-0.5787-0.22048-0.30989-0.33776-0.7611-0.34807-1.353-0.4984-0.01035-0.99536-0.01171-1.4906-0.0035 0.0013 0.99668 0.22041 1.7823 0.63415 2.355 0.4166 0.57195 1.0498 0.91724 1.9277 1.0713 0.60441 0.10606 1.1283 0.10257 1.5816-0.02122 0.45318-0.12751 0.84385-0.37921 1.1714-0.76076 0.32751-0.38145 0.55418-0.81848 0.67117-1.3154 0.1291-0.5483 0.13804-1.0306 0.02001-1.4488-0.11354-0.42083-0.32952-0.77891-0.64909-1.0702-0.31345-0.29286-0.8374-0.62272-1.5724-0.96186-0.73874-0.34088-1.2004-0.6048-1.3787-0.82434-0.13877-0.17117-0.1949-0.36039-0.16561-0.56842 0.0321-0.22801 0.14483-0.39805 0.3401-0.50844 0.30321-0.17211 0.69944-0.22079 1.1811-0.13955 0.46667 0.078706 0.79635 0.24315 0.98684 0.48486 0.1954 0.23901 0.28122 0.58977 0.26004 1.0518 0.53975 0.08066 1.0782 0.16957 1.6151 0.26604 0.1592-0.80278 0.040503-1.5028-0.37836-2.0931-0.41417-0.58811-1.156-0.99245-2.217-1.171zm-23.997 3.6392c2.0886 2.2355 3.9977 4.5913 5.7289 7.0486 0.42995-0.20408 0.86779-0.39425 1.3125-0.57067-0.41281-2.2176-0.70465-4.4696-0.87774-6.7464 1.231 1.9229 2.3518 3.8996 3.363 5.9203 0.45625-0.1242 0.91734-0.23552 1.3823-0.33409-0.09514-3.0114-0.0016-6.0486 0.27624-9.0924-0.60058 0.090818-1.1993 0.19748-1.7954 0.32013-0.03627 2.1227 0.0099 4.2367 0.13972 6.3369-0.91217-1.9083-1.9146-3.7826-3.008-5.6159-0.6915 0.20629-1.3775 0.43515-2.0566 0.68678 0.18867 2.0991 0.47855 4.1751 0.87138 6.2204-1.1419-1.723-2.3613-3.4045-3.6585-5.0393-0.566 0.27142-1.1256 0.55993-1.6778 0.86565zm12.124-3.9036 1.0822 8.8407c0.4479-0.05419 0.89789-0.09727 1.3492-0.12936l-0.19135-2.6853c0.36713-0.52368 0.75517-1.0407 1.1635-1.5497 0.64925 1.1811 1.2288 2.3818 1.7387 3.5944 0.08363 0.19469 0.16574 0.38965 0.24635 0.58486 0.60009 0.01741 1.2019 0.05292 1.8051 0.10503-0.57147-1.4174-1.2192-2.8211-1.9546-4.2072-0.23957-0.45233-0.48989-0.90216-0.75096-1.349 0.26378-0.2988 0.53468-0.59431 0.81253-0.88622 0.78748-0.83252 1.6219-1.6394 2.4966-2.4216-0.78178-0.067137-1.5689-0.11531-2.3612-0.14286-0.02224 0.023083-0.04444 0.046184-0.06661 0.069304-1.2226 1.2577-2.3225 2.581-3.29 3.9481l-0.2812-3.9461c-0.60025 0.042842-1.1999 0.10114-1.7981 0.175zm16.674 1.445-2.2392 8.6278c0.79746 0.2091 1.5961 0.43636 2.3957 0.67849 0.92369 0.27111 1.4739 0.43392 1.7361 0.48354 0.39532 0.07381 0.75799 0.04796 1.0898-0.07917 0.33623-0.12981 0.64262-0.34773 0.9185-0.65483 0.28052-0.30983 0.48958-0.65457 0.62469-1.0362 0.17156-0.48466 0.20213-0.94838 0.08707-1.3917-0.11503-0.44322-0.37383-0.81844-0.7776-1.1211 0.37743-0.05697 0.71617-0.21679 1.0172-0.48108 0.30438-0.26304 0.52679-0.59046 0.66443-0.98422 0.12695-0.36318 0.16392-0.71739 0.10828-1.0631-0.0543-0.34949-0.17097-0.654-0.35053-0.91258-0.17603-0.25735-0.40852-0.46448-0.69703-0.6198-0.28219-0.15715-0.7385-0.33926-1.3647-0.53336-1.057-0.32766-2.1281-0.63365-3.2128-0.91264zm1.2251 1.8701c0.30424 0.08675 0.60753 0.17551 0.90986 0.26616 0.73618 0.22074 1.1921 0.37997 1.334 0.44582 0.24948 0.11832 0.41158 0.28247 0.4865 0.49064 0.07972 0.2056 0.07557 0.4392-0.01094 0.70102-0.09031 0.27332-0.23955 0.4695-0.44626 0.5894-0.20214 0.11726-0.43869 0.15105-0.71098 0.10253-0.1558-0.027647-0.51773-0.13406-1.1207-0.31615-0.3353-0.10124-0.67147-0.2001-1.0085-0.29638zm-0.97514 3.4104c0.40619 0.11621 0.8115 0.23628 1.2159 0.35985 0.68219 0.20845 1.1131 0.39464 1.287 0.53999 0.17873 0.14767 0.29202 0.32815 0.34011 0.54055 0.04812 0.21249 0.02919 0.44543-0.05563 0.69924-0.10021 0.29987-0.25002 0.51713-0.44775 0.6525-0.19328 0.13268-0.405 0.18706-0.63589 0.16374-0.15383-0.01076-0.48751-0.10014-1.0131-0.26206-0.44848-0.13817-0.89728-0.27193-1.3464-0.40074z"/>
  </g>
  <g class="UnoptimicedTransforms" transform="translate(1.5911 -11.571)" style="paint-order:fill markers stroke" aria-label="Meisterbetrieb ">
   <path class="UnoptimicedTransforms" d="m34.839 113.46-8.5812 8.5002c0.40427 0.41052 0.81622 0.81433 1.2356 1.2111l6.5268-6.9226c-1.8158 2.6459-3.5433 5.3653-5.1752 8.1537 0.45079 0.39533 0.90939 0.78267 1.3756 1.1616 2.4782-2.0738 4.8717-4.2311 7.1728-6.4681l-5.7214 7.6023c0.46453 0.34873 0.93592 0.68927 1.4139 1.0213l6.9082-9.9121c-0.57351-0.40164-1.137-0.82142-1.6898-1.2578-2.0284 1.9008-4.1272 3.7381-6.2909 5.5093 1.3787-2.4339 2.8347-4.8142 4.3629-7.1374-0.52454-0.47285-1.0373-0.96048-1.5374-1.4614zm10.983 7.6156-0.84458 1.9656c0.42571 0.18246 0.85485 0.35543 1.2872 0.51853l0.7603-2.001c-0.40374-0.1516-0.80479-0.31276-1.2029-0.48313zm20.326 2.2443 1.4886 11.943c0.51926-0.0665 1.037-0.13812 1.5531-0.2146l-0.18499-1.2664c0.31928 0.44498 0.67267 0.76443 1.0582 0.95771 0.38845 0.18719 0.76423 0.24938 1.1223 0.18741 0.72867-0.12612 1.2724-0.63782 1.6137-1.5236 0.34618-0.88915 0.35573-2.0578 0.05483-3.516-0.29022-1.4065-0.74557-2.4409-1.3394-3.1015-0.59697-0.66824-1.2229-0.94138-1.8973-0.82547-0.61966 0.10649-1.0893 0.58895-1.433 1.4576l-0.63287-4.2851c-0.46757 0.0679-0.93528 0.13012-1.4031 0.18642zm19.321-5.1448 0.76389 2.01c0.47309-0.18076 0.94581-0.36443 1.4182-0.55079l-0.78685-2.0025c-0.46502 0.18387-0.93009 0.36504-1.3952 0.54329zm8.4168-3.4987 4.9356 11.082c0.45437-0.20358 0.90728-0.40851 1.3587-0.61462l-0.53202-1.1752c0.42274 0.3466 0.83872 0.56525 1.2472 0.65609 0.40954 0.0842 0.77109 0.053 1.0835-0.0927 0.63524-0.2964 1.0012-0.91698 1.0969-1.8564 0.0991-0.94111-0.17196-2.0866-0.80762-3.4389-0.6144-1.3071-1.2989-2.2093-2.0488-2.7088-0.75267-0.50472-1.4507-0.6095-2.0984-0.31285-0.5942 0.27215-0.93875 0.87606-1.0389 1.8167l-1.8023-3.9767c-0.46457 0.20858-0.92917 0.41576-1.3938 0.62133zm-39.073 8.999c-0.50262 0.39436-1.0187 0.77865-1.5487 1.1516l-0.27036 1.7158c-0.22003-0.0344-0.43961-0.0707-0.6587-0.10878l-0.31791 1.8158c0.22946 0.0401 0.45934 0.0782 0.6896 0.11441l-0.59324 3.7649c-0.12746 0.80888-0.19396 1.3461-0.19918 1.6187-0.01408 0.38134 0.01921 0.69177 0.10093 0.93216 0.08658 0.23534 0.24655 0.44276 0.48104 0.62016 0.23517 0.17185 0.51335 0.27865 0.83146 0.3181 0.51909 0.0644 0.99717-8.6e-4 1.426-0.19149 0.0059-0.60108 0.01355-1.202 0.02296-1.8028-0.31091 0.11844-0.54738 0.1672-0.70413 0.14958-0.11277-0.0127-0.20513-0.0621-0.27652-0.14813-0.06741-0.0854-0.10604-0.18692-0.11626-0.30435-0.0056-0.12296 0.03444-0.5374 0.11999-1.2467l0.42218-3.5002c0.34497 0.0415 0.69062 0.0787 1.0368 0.11197l0.17715-1.8375c-0.33178-0.0315-0.66282-0.067-0.99303-0.10633 0.1233-1.0222 0.2466-2.0445 0.36989-3.0667zm24.845-3.1909c-0.33242 0.57999-0.67158 1.1578-1.018 1.7331l0.4992 1.6635c-0.22177 0.067-0.44366 0.13313-0.66567 0.1984l0.51666 1.7691c0.22649-0.0663 0.45281-0.13345 0.67896-0.20147l1.0954 3.6503c0.23516 0.78365 0.40747 1.2981 0.51846 1.5461 0.14982 0.35057 0.30939 0.6178 0.47931 0.80192 0.172 0.17766 0.3933 0.30033 0.66399 0.36712 0.26902 0.0615 0.54657 0.048 0.83099-0.0409 0.46409-0.14507 0.84302-0.38785 1.1344-0.72548-0.23206-0.55458-0.46342-1.1094-0.69407-1.6644-0.22398 0.22892-0.40874 0.366-0.55171 0.41158-0.10273 0.0327-0.20259 0.0241-0.29936-0.0261-0.09305-0.0512-0.16798-0.12844-0.22485-0.23149-0.05498-0.10966-0.19009-0.50426-0.406-1.1852l-1.0659-3.3616c0.33549-0.10661 0.6706-0.215 1.0053-0.3251l-0.57597-1.7548c-0.32882 0.10859-0.6579 0.21547-0.98723 0.32056-0.3113-0.98173-0.62259-1.9635-0.93389-2.9452zm-38.427 1.8c-0.62588-0.35316-1.3424-0.3091-2.1945 0.12815-0.84355 0.42976-1.6888 1.2398-2.4816 2.4491-0.66646 1.0165-1.0458 1.9662-1.1071 2.873-0.06939 1.1306 0.41832 2.0208 1.4575 2.5985 0.65474 0.364 1.3133 0.45824 1.9484 0.28695 0.64309-0.17476 1.2427-0.60092 1.8019-1.2715-0.45645-0.35865-0.90269-0.72516-1.3388-1.099-0.28539 0.34621-0.5559 0.56295-0.81181 0.65023-0.25553 0.0871-0.50412 0.0648-0.7415-0.0672-0.34908-0.19404-0.54422-0.52525-0.57982-0.98499-0.03291-0.46569 0.12712-0.99251 0.47059-1.5874 1.1792 0.70685 2.3938 1.3567 3.6407 1.9435 0.77235-1.586 1.1075-2.8956 1.0538-3.867-0.05185-0.98701-0.41524-1.6561-1.1177-2.0525zm7.9547 3.2548c-0.75198-0.20192-1.3715-0.12798-1.8908 0.24718-0.51702 0.37345-0.91061 0.91308-1.1544 1.6301-0.27078 0.79629-0.26143 1.4925 0.06029 2.092 0.22792 0.42373 0.92352 1.0501 2.1243 1.7734 0.25773 0.16079 0.41567 0.30194 0.47193 0.42823 0.05095 0.13043 0.05701 0.28106 0.01708 0.4519-0.05868 0.251-0.17812 0.4343-0.36093 0.54858-0.2692 0.16094-0.6244 0.18765-1.0592 0.0732-0.39501-0.10396-0.67093-0.30127-0.82373-0.58467-0.15162-0.28919-0.19577-0.6595-0.13552-1.1113-0.52016-0.0436-1.0423-0.0975-1.5663-0.16209-0.05484-7e-3 -0.10968-0.0143-0.16453-0.0216-0.03234 0.22105-0.04836 0.43486-0.04759 0.64162 0.0021 0.57391 0.13393 1.0907 0.40103 1.5478 0.36639 0.62143 1.0101 1.0683 1.9101 1.3049 0.99153 0.26068 1.8115 0.14501 2.4277-0.31228 0.61826-0.45883 0.98852-1.0898 1.1403-1.8758 0.13924-0.72099 0.07691-1.3179-0.16973-1.7874-0.25321-0.46815-0.76066-0.92221-1.5089-1.3993-0.74053-0.47355-1.1466-0.82683-1.2356-1.0094-0.06646-0.13958-0.07552-0.28827-0.02866-0.44605 0.05466-0.18408 0.15486-0.3174 0.29884-0.40095 0.21338-0.11507 0.50811-0.1179 0.89047-0.0157 0.30308 0.081 0.514 0.22691 0.63479 0.44325 0.12408 0.21673 0.17834 0.49763 0.16075 0.84271 0.50391-0.0188 1.0051-0.0477 1.5034-0.086 0.0057-0.77531-0.13351-1.392-0.40896-1.8498-0.27681-0.46006-0.76945-0.76999-1.4862-0.96245zm9.3835 1.2964c-0.73213-0.018-1.3517 0.36252-1.8967 1.1536-0.54137 0.78084-0.89623 1.8971-1.0152 3.3391-0.1 1.2123 0.01961 2.2284 0.39212 3.0567 0.47077 1.0299 1.3063 1.5836 2.4652 1.6098 0.73032 0.0165 1.3386-0.20461 1.81-0.64973 0.47646-0.45154 0.80644-1.1063 0.99564-1.9596-0.55773-0.11253-1.1126-0.23382-1.664-0.36388-0.09132 0.44009-0.22809 0.7584-0.41066 0.95495-0.18237 0.19632-0.40822 0.29238-0.67489 0.28649-0.3921-9e-3 -0.71446-0.21001-0.95914-0.59978-0.24503-0.3962-0.35211-0.9372-0.33071-1.6249 1.3639 0.0664 2.7285 0.0761 4.0883 0.0335-0.03111-1.771-0.32343-3.089-0.82475-3.933-0.50528-0.85612-1.1533-1.283-1.9753-1.3032zm6.4202-0.25038c-0.23841 0.0231-0.44333 0.13512-0.61718 0.33721-0.17051 0.20208-0.34892 0.60429-0.54383 1.2085l-0.09767-1.2393c-0.20605 0.0155-0.4122 0.0299-0.61846 0.0432-0.2523 0.0167-0.50469 0.0316-0.75712 0.0447l0.46833 8.7428c0.29609-0.0168 0.59172-0.036 0.88685-0.0575 0.2765-0.021 0.55256-0.0436 0.82818-0.0676l-0.21682-2.6912c-0.11921-1.4796-0.15408-2.4624-0.10759-2.9314 0.05045-0.47202 0.14232-0.802 0.27618-0.98974 0.1335-0.19338 0.30631-0.29973 0.52008-0.32024 0.22112-0.0212 0.47214 0.0801 0.75763 0.30288 0.08615-0.68418 0.16737-1.3681 0.24374-2.0519-0.34703-0.25269-0.68566-0.36294-1.0223-0.33036zm10.238-1.8213c-0.7282 0.18425-1.2332 0.72505-1.5368 1.6356-0.30379 0.90228-0.31562 2.0642-0.01 3.473 0.2565 1.1823 0.662 2.1164 1.2363 2.8025 0.72236 0.85259 1.6304 1.155 2.6941 0.88865 0.67104-0.168 1.1711-0.52662 1.4941-1.0676 0.32572-0.54797 0.47112-1.2567 0.43979-2.1254-0.55186 0.0216-1.1031 0.0386-1.6534 0.0507 0.02752 0.44607-0.01791 0.78624-0.13644 1.0207-0.11845 0.2343-0.30241 0.38324-0.55063 0.44563-0.3649 0.0917-0.71613-0.0171-1.0487-0.32541-0.33434-0.31409-0.58335-0.80276-0.7526-1.466 1.2968-0.30689 2.5856-0.6436 3.8666-1.0067-0.46275-1.707-1.0615-2.9068-1.7651-3.5955-0.70801-0.69693-1.4603-0.93682-2.2772-0.73014zm9.7995-3.0676c-0.23127 0.0849-0.40676 0.24828-0.52779 0.49091-0.11769 0.24163-0.19199 0.68032-0.22732 1.3177l-0.41465-1.1759c-0.44542 0.15789-0.89129 0.31291-1.3376 0.46488l2.8094 8.2992c0.52003-0.17404 1.0383-0.35157 1.5548-0.53239l-0.90315-2.5536c-0.49696-1.4051-0.78365-2.3463-0.8593-2.8144-0.07238-0.47078-0.06728-0.81467 0.01566-1.0316 0.08113-0.22217 0.22341-0.37006 0.42762-0.44438 0.21116-0.0769 0.4827-0.0416 0.81683 0.10507-0.08343-0.68894-0.16938-1.3774-0.25778-2.0655-0.40573-0.15965-0.77025-0.17987-1.0967-0.0601zm6.4993-2.5711c-0.71057 0.29939-1.1399 0.92435-1.2973 1.8828-0.15918 0.95162 0.0267 2.1073 0.56951 3.458 0.45504 1.1323 1.0147 1.9946 1.6894 2.5857 0.8478 0.73409 1.7726 0.8968 2.7558 0.48164 0.62064-0.26206 1.0475-0.68633 1.2791-1.268 0.23307-0.58855 0.27143-1.3134 0.11728-2.1741-0.53691 0.0942-1.0743 0.18618-1.612 0.27579 0.09413 0.44025 0.10151 0.78535 0.02204 1.0354-0.07945 0.24997-0.2353 0.42426-0.46712 0.52217-0.34075 0.14393-0.69981 0.0875-1.0745-0.16916-0.37712-0.26199-0.70144-0.70993-0.97572-1.3434 1.2264-0.50689 2.4452-1.0282 3.6565-1.5604-0.69505-1.6404-1.4521-2.7539-2.2573-3.3416-0.80888-0.59384-1.6076-0.72114-2.4057-0.3849zm-47.016 5.0044-3.4498 8.0286c0.55359 0.23856 1.113 0.46627 1.6781 0.68274l3.1056-8.1732c-0.4482-0.16947-0.8929-0.34898-1.3339-0.53814zm42.146-2.8315 3.1202 8.21c0.50997-0.19238 1.0182-0.38764 1.5247-0.58556l-3.214-8.1794c-0.47645 0.18774-0.95342 0.37279-1.4309 0.55494zm-46.214 2.573c0.2684 0.15039 0.41315 0.42852 0.44019 0.84086 0.02951 0.40614-0.10146 0.91194-0.40038 1.5098-0.70293-0.36633-1.3947-0.75379-2.0746-1.1611 0.32101-0.54274 0.67357-0.91516 1.047-1.121 0.37448-0.20637 0.70075-0.22943 0.98782-0.0686zm18.174 4.7399c0.31036 7e-3 0.57084 0.18621 0.78772 0.53976 0.21638 0.34718 0.33425 0.85714 0.34572 1.5276-0.79102 2.4e-4 -1.5824-0.018-2.373-0.0557 0.02625-0.63122 0.16071-1.1268 0.39413-1.4854 0.23397-0.35935 0.51342-0.53385 0.84538-0.52623zm10.898-0.84471c0.36764-0.0611 0.70628 0.10417 1.022 0.49744 0.31384 0.38675 0.56563 1.0706 0.74604 2.048 0.16984 0.92011 0.17144 1.6159-0.0028 2.0926-0.17099 0.46947-0.43813 0.73575-0.79632 0.79585-0.46576 0.0782-0.88966-0.16529-1.2602-0.72827-0.26395-0.39779-0.4582-1.0417-0.59005-1.9354-0.12759-0.86481-0.09887-1.5286 0.07824-1.9861 0.17674-0.46406 0.44255-0.72425 0.80309-0.78413zm6.2328-1.3129c0.30302-0.0767 0.60335 0.0262 0.90481 0.30937 0.29966 0.27755 0.54327 0.73765 0.72619 1.3802-0.7559 0.20123-1.5142 0.39258-2.2749 0.57332-0.14916-0.61098-0.15794-1.1213-0.03109-1.5289 0.12702-0.40809 0.35084-0.65194 0.67496-0.73402zm16.556-5.724c0.29263-0.12346 0.60968-0.0664 0.95295 0.17119 0.34089 0.23236 0.6504 0.65551 0.92636 1.2698-0.72086 0.30961-1.444 0.61482-2.1693 0.91491-0.24609-0.58501-0.33653-1.0916-0.27346-1.5182 0.06312-0.42691 0.25042-0.70563 0.56346-0.8377zm6.1828-2.7284c0.34604-0.15849 0.72279-0.0865 1.1319 0.21554 0.40649 0.29685 0.82165 0.8993 1.2433 1.8073 0.39634 0.85347 0.57558 1.5316 0.53609 2.0362-0.0384 0.49772-0.21688 0.82092-0.53489 0.96819-0.4137 0.19159-0.87494 0.0639-1.3802-0.38398-0.35841-0.31533-0.72431-0.88712-1.0999-1.7159-0.36398-0.80318-0.52116-1.4527-0.47319-1.9464 0.04572-0.49907 0.23765-0.82553 0.57692-0.98092z"/>
  </g>
  <g class="UnoptimicedTransforms" transform="translate(1.4827 -12.917)" fill="#fff" style="paint-order:fill markers stroke" aria-label="Meisterbetrieb ">
   <path class="UnoptimicedTransforms" d="m34.839 113.46-8.5812 8.5002c0.40427 0.41052 0.81622 0.81433 1.2356 1.2111l6.5268-6.9226c-1.8158 2.6459-3.5433 5.3653-5.1752 8.1537 0.45079 0.39533 0.90939 0.78267 1.3756 1.1616 2.4782-2.0738 4.8717-4.2311 7.1728-6.4681l-5.7214 7.6023c0.46453 0.34873 0.93592 0.68927 1.4139 1.0213l6.9082-9.9121c-0.57351-0.40164-1.137-0.82142-1.6898-1.2578-2.0284 1.9008-4.1272 3.7381-6.2909 5.5093 1.3787-2.4339 2.8347-4.8142 4.3629-7.1374-0.52454-0.47285-1.0373-0.96048-1.5374-1.4614zm10.983 7.6156-0.84458 1.9656c0.42571 0.18246 0.85485 0.35543 1.2872 0.51853l0.7603-2.001c-0.40374-0.1516-0.80479-0.31276-1.2029-0.48313zm20.326 2.2443 1.4886 11.943c0.51926-0.0665 1.037-0.13812 1.5531-0.2146l-0.18499-1.2664c0.31928 0.44498 0.67267 0.76443 1.0582 0.95771 0.38845 0.18719 0.76423 0.24938 1.1223 0.18741 0.72867-0.12612 1.2724-0.63782 1.6137-1.5236 0.34618-0.88915 0.35573-2.0578 0.05483-3.516-0.29022-1.4065-0.74557-2.4409-1.3394-3.1015-0.59697-0.66824-1.2229-0.94138-1.8973-0.82547-0.61966 0.10649-1.0893 0.58895-1.433 1.4576l-0.63287-4.2851c-0.46757 0.0679-0.93528 0.13012-1.4031 0.18642zm19.321-5.1448 0.76389 2.01c0.47309-0.18076 0.94581-0.36443 1.4182-0.55079l-0.78685-2.0025c-0.46502 0.18387-0.93009 0.36504-1.3952 0.54329zm8.4168-3.4987 4.9356 11.082c0.45437-0.20358 0.90728-0.40851 1.3587-0.61462l-0.53202-1.1752c0.42274 0.3466 0.83872 0.56525 1.2472 0.65609 0.40954 0.0842 0.77109 0.053 1.0835-0.0927 0.63524-0.2964 1.0012-0.91698 1.0969-1.8564 0.0991-0.94111-0.17196-2.0866-0.80762-3.4389-0.6144-1.3071-1.2989-2.2093-2.0488-2.7088-0.75267-0.50472-1.4507-0.6095-2.0984-0.31285-0.5942 0.27215-0.93875 0.87606-1.0389 1.8167l-1.8023-3.9767c-0.46457 0.20858-0.92917 0.41576-1.3938 0.62133zm-39.073 8.999c-0.50262 0.39436-1.0187 0.77865-1.5487 1.1516l-0.27036 1.7158c-0.22003-0.0344-0.43961-0.0707-0.6587-0.10878l-0.31791 1.8158c0.22946 0.0401 0.45934 0.0782 0.6896 0.11441l-0.59324 3.7649c-0.12746 0.80888-0.19396 1.3461-0.19918 1.6187-0.01408 0.38134 0.01921 0.69177 0.10093 0.93216 0.08658 0.23534 0.24655 0.44276 0.48104 0.62016 0.23517 0.17185 0.51335 0.27865 0.83146 0.3181 0.51909 0.0644 0.99717-8.6e-4 1.426-0.19149 0.0059-0.60108 0.01355-1.202 0.02296-1.8028-0.31091 0.11844-0.54738 0.1672-0.70413 0.14958-0.11277-0.0127-0.20513-0.0621-0.27652-0.14813-0.06741-0.0854-0.10604-0.18692-0.11626-0.30435-0.0056-0.12296 0.03444-0.5374 0.11999-1.2467l0.42218-3.5002c0.34497 0.0415 0.69062 0.0787 1.0368 0.11197l0.17715-1.8375c-0.33178-0.0315-0.66282-0.067-0.99303-0.10633 0.1233-1.0222 0.2466-2.0445 0.36989-3.0667zm24.845-3.1909c-0.33242 0.57999-0.67158 1.1578-1.018 1.7331l0.4992 1.6635c-0.22177 0.067-0.44366 0.13313-0.66567 0.1984l0.51666 1.7691c0.22649-0.0663 0.45281-0.13345 0.67896-0.20147l1.0954 3.6503c0.23516 0.78365 0.40747 1.2981 0.51846 1.5461 0.14982 0.35057 0.30939 0.6178 0.47931 0.80192 0.172 0.17766 0.3933 0.30033 0.66399 0.36712 0.26902 0.0615 0.54657 0.048 0.83099-0.0409 0.46409-0.14507 0.84302-0.38785 1.1344-0.72548-0.23206-0.55458-0.46342-1.1094-0.69407-1.6644-0.22398 0.22892-0.40874 0.366-0.55171 0.41158-0.10273 0.0327-0.20259 0.0241-0.29936-0.0261-0.09305-0.0512-0.16798-0.12844-0.22485-0.23149-0.05498-0.10966-0.19009-0.50426-0.406-1.1852l-1.0659-3.3616c0.33549-0.10661 0.6706-0.215 1.0053-0.3251l-0.57597-1.7548c-0.32882 0.10859-0.6579 0.21547-0.98723 0.32056-0.3113-0.98173-0.62259-1.9635-0.93389-2.9452zm-38.427 1.8c-0.62588-0.35316-1.3424-0.3091-2.1945 0.12815-0.84355 0.42976-1.6888 1.2398-2.4816 2.4491-0.66646 1.0165-1.0458 1.9662-1.1071 2.873-0.06939 1.1306 0.41832 2.0208 1.4575 2.5985 0.65474 0.364 1.3133 0.45824 1.9484 0.28695 0.64309-0.17476 1.2427-0.60092 1.8019-1.2715-0.45645-0.35865-0.90269-0.72516-1.3388-1.099-0.28539 0.34621-0.5559 0.56295-0.81181 0.65023-0.25553 0.0871-0.50412 0.0648-0.7415-0.0672-0.34908-0.19404-0.54422-0.52525-0.57982-0.98499-0.03291-0.46569 0.12712-0.99251 0.47059-1.5874 1.1792 0.70685 2.3938 1.3567 3.6407 1.9435 0.77235-1.586 1.1075-2.8956 1.0538-3.867-0.05185-0.98701-0.41524-1.6561-1.1177-2.0525zm7.9547 3.2548c-0.75198-0.20192-1.3715-0.12798-1.8908 0.24718-0.51702 0.37345-0.91061 0.91308-1.1544 1.6301-0.27078 0.79629-0.26143 1.4925 0.06029 2.092 0.22792 0.42373 0.92352 1.0501 2.1243 1.7734 0.25773 0.16079 0.41567 0.30194 0.47193 0.42823 0.05095 0.13043 0.05701 0.28106 0.01708 0.4519-0.05868 0.251-0.17812 0.4343-0.36093 0.54858-0.2692 0.16094-0.6244 0.18765-1.0592 0.0732-0.39501-0.10396-0.67093-0.30127-0.82373-0.58467-0.15162-0.28919-0.19577-0.6595-0.13552-1.1113-0.52016-0.0436-1.0423-0.0975-1.5663-0.16209-0.05484-7e-3 -0.10968-0.0143-0.16453-0.0216-0.03234 0.22105-0.04836 0.43486-0.04759 0.64162 0.0021 0.57391 0.13393 1.0907 0.40103 1.5478 0.36639 0.62143 1.0101 1.0683 1.9101 1.3049 0.99153 0.26068 1.8115 0.14501 2.4277-0.31228 0.61826-0.45883 0.98852-1.0898 1.1403-1.8758 0.13924-0.72099 0.07691-1.3179-0.16973-1.7874-0.25321-0.46815-0.76066-0.92221-1.5089-1.3993-0.74053-0.47355-1.1466-0.82683-1.2356-1.0094-0.06646-0.13958-0.07552-0.28827-0.02866-0.44605 0.05466-0.18408 0.15486-0.3174 0.29884-0.40095 0.21338-0.11507 0.50811-0.1179 0.89047-0.0157 0.30308 0.081 0.514 0.22691 0.63479 0.44325 0.12408 0.21673 0.17834 0.49763 0.16075 0.84271 0.50391-0.0188 1.0051-0.0477 1.5034-0.086 0.0057-0.77531-0.13351-1.392-0.40896-1.8498-0.27681-0.46006-0.76945-0.76999-1.4862-0.96245zm9.3835 1.2964c-0.73213-0.018-1.3517 0.36252-1.8967 1.1536-0.54137 0.78084-0.89623 1.8971-1.0152 3.3391-0.1 1.2123 0.01961 2.2284 0.39212 3.0567 0.47077 1.0299 1.3063 1.5836 2.4652 1.6098 0.73032 0.0165 1.3386-0.20461 1.81-0.64973 0.47646-0.45154 0.80644-1.1063 0.99564-1.9596-0.55773-0.11253-1.1126-0.23382-1.664-0.36388-0.09132 0.44009-0.22809 0.7584-0.41066 0.95495-0.18237 0.19632-0.40822 0.29238-0.67489 0.28649-0.3921-9e-3 -0.71446-0.21001-0.95914-0.59978-0.24503-0.3962-0.35211-0.9372-0.33071-1.6249 1.3639 0.0664 2.7285 0.0761 4.0883 0.0335-0.03111-1.771-0.32343-3.089-0.82475-3.933-0.50528-0.85612-1.1533-1.283-1.9753-1.3032zm6.4202-0.25038c-0.23841 0.0231-0.44333 0.13512-0.61718 0.33721-0.17051 0.20208-0.34892 0.60429-0.54383 1.2085l-0.09767-1.2393c-0.20605 0.0155-0.4122 0.0299-0.61846 0.0432-0.2523 0.0167-0.50469 0.0316-0.75712 0.0447l0.46833 8.7428c0.29609-0.0168 0.59172-0.036 0.88685-0.0575 0.2765-0.021 0.55256-0.0436 0.82818-0.0676l-0.21682-2.6912c-0.11921-1.4796-0.15408-2.4624-0.10759-2.9314 0.05045-0.47202 0.14232-0.802 0.27618-0.98974 0.1335-0.19338 0.30631-0.29973 0.52008-0.32024 0.22112-0.0212 0.47214 0.0801 0.75763 0.30288 0.08615-0.68418 0.16737-1.3681 0.24374-2.0519-0.34703-0.25269-0.68566-0.36294-1.0223-0.33036zm10.238-1.8213c-0.7282 0.18425-1.2332 0.72505-1.5368 1.6356-0.30379 0.90228-0.31562 2.0642-0.01 3.473 0.2565 1.1823 0.662 2.1164 1.2363 2.8025 0.72236 0.85259 1.6304 1.155 2.6941 0.88865 0.67104-0.168 1.1711-0.52662 1.4941-1.0676 0.32572-0.54797 0.47112-1.2567 0.43979-2.1254-0.55186 0.0216-1.1031 0.0386-1.6534 0.0507 0.02752 0.44607-0.01791 0.78624-0.13644 1.0207-0.11845 0.2343-0.30241 0.38324-0.55063 0.44563-0.3649 0.0917-0.71613-0.0171-1.0487-0.32541-0.33434-0.31409-0.58335-0.80276-0.7526-1.466 1.2968-0.30689 2.5856-0.6436 3.8666-1.0067-0.46275-1.707-1.0615-2.9068-1.7651-3.5955-0.70801-0.69693-1.4603-0.93682-2.2772-0.73014zm9.7995-3.0676c-0.23127 0.0849-0.40676 0.24828-0.52779 0.49091-0.11769 0.24163-0.19199 0.68032-0.22732 1.3177l-0.41465-1.1759c-0.44542 0.15789-0.89129 0.31291-1.3376 0.46488l2.8094 8.2992c0.52003-0.17404 1.0383-0.35157 1.5548-0.53239l-0.90315-2.5536c-0.49696-1.4051-0.78365-2.3463-0.8593-2.8144-0.07238-0.47078-0.06728-0.81467 0.01566-1.0316 0.08113-0.22217 0.22341-0.37006 0.42762-0.44438 0.21116-0.0769 0.4827-0.0416 0.81683 0.10507-0.08343-0.68894-0.16938-1.3774-0.25778-2.0655-0.40573-0.15965-0.77025-0.17987-1.0967-0.0601zm6.4993-2.5711c-0.71057 0.29939-1.1399 0.92435-1.2973 1.8828-0.15918 0.95162 0.0267 2.1073 0.56951 3.458 0.45504 1.1323 1.0147 1.9946 1.6894 2.5857 0.8478 0.73409 1.7726 0.8968 2.7558 0.48164 0.62064-0.26206 1.0475-0.68633 1.2791-1.268 0.23307-0.58855 0.27143-1.3134 0.11728-2.1741-0.53691 0.0942-1.0743 0.18618-1.612 0.27579 0.09413 0.44025 0.10151 0.78535 0.02204 1.0354-0.07945 0.24997-0.2353 0.42426-0.46712 0.52217-0.34075 0.14393-0.69981 0.0875-1.0745-0.16916-0.37712-0.26199-0.70144-0.70993-0.97572-1.3434 1.2264-0.50689 2.4452-1.0282 3.6565-1.5604-0.69505-1.6404-1.4521-2.7539-2.2573-3.3416-0.80888-0.59384-1.6076-0.72114-2.4057-0.3849zm-47.016 5.0044-3.4498 8.0286c0.55359 0.23856 1.113 0.46627 1.6781 0.68274l3.1056-8.1732c-0.4482-0.16947-0.8929-0.34898-1.3339-0.53814zm42.146-2.8315 3.1202 8.21c0.50997-0.19238 1.0182-0.38764 1.5247-0.58556l-3.214-8.1794c-0.47645 0.18774-0.95342 0.37279-1.4309 0.55494zm-46.214 2.573c0.2684 0.15039 0.41315 0.42852 0.44019 0.84086 0.02951 0.40614-0.10146 0.91194-0.40038 1.5098-0.70293-0.36633-1.3947-0.75379-2.0746-1.1611 0.32101-0.54274 0.67357-0.91516 1.047-1.121 0.37448-0.20637 0.70075-0.22943 0.98782-0.0686zm18.174 4.7399c0.31036 7e-3 0.57084 0.18621 0.78772 0.53976 0.21638 0.34718 0.33425 0.85714 0.34572 1.5276-0.79102 2.4e-4 -1.5824-0.018-2.373-0.0557 0.02625-0.63122 0.16071-1.1268 0.39413-1.4854 0.23397-0.35935 0.51342-0.53385 0.84538-0.52623zm10.898-0.84471c0.36764-0.0611 0.70628 0.10417 1.022 0.49744 0.31384 0.38675 0.56563 1.0706 0.74604 2.048 0.16984 0.92011 0.17144 1.6159-0.0028 2.0926-0.17099 0.46947-0.43813 0.73575-0.79632 0.79585-0.46576 0.0782-0.88966-0.16529-1.2602-0.72827-0.26395-0.39779-0.4582-1.0417-0.59005-1.9354-0.12759-0.86481-0.09887-1.5286 0.07824-1.9861 0.17674-0.46406 0.44255-0.72425 0.80309-0.78413zm6.2328-1.3129c0.30302-0.0767 0.60335 0.0262 0.90481 0.30937 0.29966 0.27755 0.54327 0.73765 0.72619 1.3802-0.7559 0.20123-1.5142 0.39258-2.2749 0.57332-0.14916-0.61098-0.15794-1.1213-0.03109-1.5289 0.12702-0.40809 0.35084-0.65194 0.67496-0.73402zm16.556-5.724c0.29263-0.12346 0.60968-0.0664 0.95295 0.17119 0.34089 0.23236 0.6504 0.65551 0.92636 1.2698-0.72086 0.30961-1.444 0.61482-2.1693 0.91491-0.24609-0.58501-0.33653-1.0916-0.27346-1.5182 0.06312-0.42691 0.25042-0.70563 0.56346-0.8377zm6.1828-2.7284c0.34604-0.15849 0.72279-0.0865 1.1319 0.21554 0.40649 0.29685 0.82165 0.8993 1.2433 1.8073 0.39634 0.85347 0.57558 1.5316 0.53609 2.0362-0.0384 0.49772-0.21688 0.82092-0.53489 0.96819-0.4137 0.19159-0.87494 0.0639-1.3802-0.38398-0.35841-0.31533-0.72431-0.88712-1.0999-1.7159-0.36398-0.80318-0.52116-1.4527-0.47319-1.9464 0.04572-0.49907 0.23765-0.82553 0.57692-0.98092z"/>
  </g>
 </g>
</svg>
